<svg width="197" height="74" xmlns="http://www.w3.org/2000/svg" xmlns:xlink="http://www.w3.org/1999/xlink" xml:space="preserve" overflow="hidden"><g transform="translate(-45 -629)"><path d="M31.4516 35.2411C30.8155 34.5434 29.8578 34.1945 28.565 34.1945 27.7236 34.1945 27.0191 34.3382 26.4582 34.6255 25.8973 34.9128 25.4527 35.2685 25.1175 35.6857 24.7823 36.1098 24.5429 36.5544 24.4061 37.0264 24.2693 37.4984 24.1872 37.9225 24.1667 38.2919L32.7718 38.2919C32.5255 36.9512 32.0809 35.932 31.4516 35.2343M25.4732 45.3784C26.2667 46.1514 27.409 46.5344 28.9002 46.5344 29.9673 46.5344 30.8839 46.2676 31.6568 45.7341 32.4298 45.2006 32.9017 44.6328 33.0727 44.0377L37.731 44.0377C36.9854 46.3497 35.8431 47.9982 34.304 48.9901 32.7649 49.9819 30.9044 50.4813 28.7155 50.4813 27.1969 50.4813 25.8357 50.2418 24.6182 49.7562 23.4006 49.2705 22.3677 48.5797 21.5264 47.6904 20.685 46.7943 20.0283 45.7273 19.57 44.4892 19.1117 43.2442 18.8792 41.883 18.8792 40.3918 18.8792 38.9007 19.1117 37.6078 19.5837 36.3698 20.0557 35.1248 20.726 34.0509 21.5948 33.148 22.4635 32.2382 23.5032 31.5268 24.7071 31.007 25.911 30.4871 27.2448 30.2272 28.7086 30.2272 30.3503 30.2272 31.7731 30.5418 32.9907 31.178 34.2082 31.8141 35.2069 32.6623 35.9867 33.7294 36.7665 34.7965 37.3342 36.0141 37.6831 37.3821 38.0319 38.7502 38.1551 40.1798 38.0525 41.6641L24.153 41.6641C24.2283 43.3742 24.6592 44.6191 25.4595 45.3921" transform="matrix(1 0 0 1.00169 45 629)"/><path d="M53.2584 40.5697C53.0327 40.7681 52.7522 40.9254 52.417 41.0348 52.0819 41.1443 51.7193 41.24 51.3363 41.3153 50.9532 41.3905 50.5497 41.4521 50.1256 41.5 49.7015 41.5478 49.2842 41.6094 48.8601 41.6847 48.4634 41.7599 48.0735 41.8557 47.6836 41.9856 47.3005 42.1088 46.9654 42.2798 46.6781 42.4918 46.3908 42.7039 46.165 42.9706 45.9872 43.2921 45.8162 43.6136 45.7273 44.024 45.7273 44.5234 45.7273 45.0227 45.8162 45.3921 45.9872 45.7136 46.1582 46.0351 46.3976 46.2882 46.6986 46.4797 46.9927 46.6644 47.3416 46.7943 47.7383 46.8696 48.135 46.9448 48.5455 46.979 48.9695 46.979 50.0161 46.979 50.8233 46.808 51.391 46.4592 51.9588 46.1103 52.3829 45.6931 52.6565 45.2142 52.9301 44.7286 53.0942 44.2429 53.1626 43.7436 53.2242 43.2442 53.2584 42.8475 53.2584 42.5534L53.2584 40.5765ZM41.0348 36.6571C41.1101 35.4121 41.4179 34.3861 41.9651 33.5652 42.5123 32.7444 43.21 32.0877 44.0514 31.5884 44.8927 31.0891 45.8435 30.7402 46.9038 30.5282 47.9572 30.3161 49.0243 30.2135 50.0914 30.2135 51.0627 30.2135 52.0408 30.2819 53.0327 30.4187 54.0245 30.5555 54.9343 30.8223 55.7551 31.219 56.5759 31.6158 57.2463 32.1698 57.7661 32.8744 58.286 33.5858 58.5459 34.5229 58.5459 35.6857L58.5459 45.7067C58.5459 46.5755 58.5938 47.41 58.6964 48.2034 58.7922 48.9969 58.97 49.592 59.2163 49.9888L53.8535 49.9888C53.7509 49.6878 53.6688 49.3868 53.6073 49.079 53.5457 48.7712 53.5047 48.4497 53.4773 48.1282 52.6359 48.9969 51.6373 49.6057 50.4949 49.9545 49.3526 50.3034 48.1829 50.4744 46.9927 50.4744 46.0761 50.4744 45.2142 50.365 44.4208 50.1392 43.6273 49.9135 42.9296 49.5715 42.3345 49.0927 41.7394 48.6207 41.2742 48.0256 40.9391 47.3074 40.6039 46.5891 40.4329 45.7273 40.4329 44.7354 40.4329 43.641 40.6244 42.7449 41.0075 42.0335 41.3905 41.329 41.8899 40.7612 42.4986 40.3371 43.1074 39.913 43.8051 39.5984 44.5849 39.3863 45.3647 39.1743 46.1582 39.0101 46.9517 38.8801 47.7451 38.757 48.5318 38.6544 49.2979 38.5792 50.0708 38.5039 50.7549 38.3945 51.35 38.244 51.9451 38.0935 52.417 37.8746 52.7659 37.5942 53.1148 37.3069 53.2721 36.8896 53.2516 36.3492 53.2516 35.7815 53.1558 35.3232 52.9711 34.988 52.7864 34.6528 52.5333 34.3929 52.2255 34.2082 51.9177 34.0235 51.5552 33.9004 51.1448 33.8389 50.7343 33.7773 50.2966 33.7431 49.8246 33.7431 48.778 33.7431 47.964 33.9688 47.3621 34.4134 46.767 34.8581 46.4181 35.6036 46.3155 36.6502L41.028 36.6502Z" transform="matrix(1 0 0 1.00169 45 629)"/><path d="M67.0552 30.7334 67.0552 34.3108 67.1305 34.3108C67.3767 33.7157 67.7119 33.1617 68.136 32.6555 68.5601 32.1493 69.0458 31.7115 69.5862 31.349 70.1334 30.9865 70.7148 30.7128 71.3373 30.5076 71.9597 30.3093 72.6027 30.2067 73.2731 30.2067 73.6219 30.2067 74.005 30.2682 74.4291 30.3914L74.4291 35.3095C74.1828 35.2616 73.8818 35.2137 73.533 35.1796 73.1841 35.1453 72.849 35.1248 72.5275 35.1248 71.5561 35.1248 70.7421 35.289 70.0718 35.6105 69.4015 35.932 68.8611 36.3766 68.4507 36.9307 68.0402 37.4916 67.7461 38.1414 67.5751 38.887 67.4041 39.6326 67.3152 40.4397 67.3152 41.3084L67.3152 49.9888 62.0208 49.9888 62.0208 30.7265 67.0484 30.7265Z" transform="matrix(1 0 0 1.00169 45 629)"/><path d="M76.659 24.9602 81.9534 24.9602 81.9534 30.7334 85.8318 30.7334 85.8318 34.2698 81.9534 34.2698 81.9534 43.812C81.9534 44.7081 82.1039 45.3032 82.398 45.5973 82.699 45.8983 83.2941 46.0419 84.1833 46.0419 84.4843 46.0419 84.7647 46.0282 85.0383 46.0077 85.312 45.9804 85.5719 45.9461 85.8181 45.8983L85.8181 49.9956C85.3735 50.0708 84.8742 50.1187 84.3269 50.1461 83.7797 50.1666 83.2462 50.1803 82.7263 50.1803 81.9055 50.1803 81.1325 50.1256 80.4006 50.0093 79.6687 49.8998 79.0189 49.6809 78.4648 49.3594 77.9039 49.038 77.4661 48.5797 77.1447 47.9846 76.8232 47.3894 76.659 46.6028 76.659 45.6383L76.659 24.9602Z" transform="matrix(1 0 0 1.00169 45 629)"/><path d="M94.5395 23.3938 94.5395 33.4148 94.6489 33.4148C95.3193 32.2998 96.1743 31.4858 97.2209 30.9728 98.2606 30.4666 99.2798 30.2067 100.278 30.2067 101.694 30.2067 102.857 30.3982 103.76 30.7812 104.663 31.1643 105.381 31.6978 105.901 32.3819 106.421 33.0659 106.79 33.9004 107.002 34.8786 107.215 35.8636 107.317 36.9443 107.317 38.1414L107.317 49.9888 102.03 49.9888 102.03 39.1059C102.03 37.5189 101.783 36.3287 101.284 35.5489 100.785 34.7691 99.9023 34.3724 98.6368 34.3724 97.1935 34.3724 96.1538 34.8033 95.504 35.6584 94.861 36.5134 94.5326 37.9225 94.5326 39.8857L94.5326 49.9819 89.2383 49.9819 89.2383 23.3801 94.5326 23.3801Z" transform="matrix(1 0 0 1.00169 45 629)"/><path d="M124.603 38.0388C124.431 37.2932 124.158 36.6365 123.782 36.0619 123.412 35.4942 122.94 35.0359 122.386 34.7007 121.825 34.3656 121.148 34.1945 120.355 34.1945 119.561 34.1945 118.911 34.3656 118.344 34.7007 117.769 35.0359 117.304 35.4874 116.928 36.0619 116.558 36.6365 116.285 37.2932 116.107 38.0388 115.936 38.7844 115.847 39.5642 115.847 40.385 115.847 41.2058 115.936 41.9514 116.107 42.697 116.278 43.4426 116.551 44.0993 116.928 44.6739 117.304 45.2484 117.769 45.6999 118.344 46.0351 118.911 46.3702 119.589 46.5413 120.355 46.5413 121.121 46.5413 121.825 46.3702 122.386 46.0351 122.947 45.6999 123.412 45.2484 123.782 44.6739 124.151 44.1061 124.425 43.4426 124.603 42.697 124.774 41.9514 124.862 41.1853 124.862 40.385 124.862 39.5847 124.774 38.7844 124.603 38.0388M116.032 23.3938 116.032 33.0796 116.107 33.0796C116.75 32.0877 117.625 31.3627 118.734 30.8975 119.842 30.4392 120.991 30.2067 122.181 30.2067 123.152 30.2067 124.103 30.405 125.047 30.8018 125.991 31.1985 126.839 31.8073 127.599 32.6281 128.358 33.449 128.973 34.4955 129.445 35.7747 129.917 37.0538 130.157 38.5723 130.157 40.3371 130.157 42.1019 129.917 43.6205 129.445 44.8996 128.973 46.1787 128.358 47.2253 127.599 48.0461 126.839 48.8669 125.991 49.4757 125.047 49.8725 124.103 50.2692 123.146 50.4676 122.181 50.4676 120.765 50.4676 119.5 50.2418 118.378 49.7972 117.263 49.3526 116.415 48.5933 115.847 47.5263L115.772 47.5263 115.772 49.9888 110.744 49.9888 110.744 23.3869 116.032 23.3869Z" transform="matrix(1 0 0 1.00169 45 629)"/><path d="M145.39 40.5697C145.164 40.7681 144.884 40.9254 144.549 41.0348 144.214 41.1443 143.851 41.24 143.468 41.3153 143.085 41.3905 142.681 41.4521 142.257 41.5 141.833 41.5478 141.416 41.6094 140.992 41.6847 140.595 41.7599 140.205 41.8557 139.815 41.9856 139.432 42.1088 139.097 42.2798 138.81 42.4918 138.522 42.7039 138.297 42.9706 138.119 43.2921 137.948 43.6136 137.859 44.024 137.859 44.5234 137.859 45.0227 137.948 45.3921 138.119 45.7136 138.29 46.0351 138.529 46.2882 138.823 46.4797 139.124 46.6644 139.466 46.7943 139.87 46.8696 140.267 46.9448 140.677 46.979 141.101 46.979 142.141 46.979 142.948 46.808 143.523 46.4592 144.09 46.1103 144.515 45.6931 144.788 45.2142 145.062 44.7286 145.233 44.2429 145.294 43.7436 145.356 43.2442 145.39 42.8475 145.39 42.5534L145.39 40.5765ZM133.167 36.6571C133.242 35.4121 133.55 34.3861 134.097 33.5652 134.644 32.7444 135.335 32.0877 136.183 31.5884 137.024 31.0891 137.975 30.7402 139.035 30.5282 140.089 30.3161 141.156 30.2135 142.223 30.2135 143.194 30.2135 144.173 30.2819 145.164 30.4187 146.156 30.5555 147.066 30.8223 147.887 31.219 148.708 31.6158 149.378 32.1698 149.898 32.8744 150.418 33.5858 150.678 34.5229 150.678 35.6857L150.678 45.7067C150.678 46.5755 150.726 47.41 150.828 48.2034 150.924 48.9969 151.102 49.592 151.348 49.9888L145.985 49.9888C145.883 49.6878 145.807 49.3868 145.746 49.079 145.684 48.7712 145.643 48.4497 145.616 48.1282 144.774 48.9969 143.776 49.6057 142.633 49.9545 141.491 50.3034 140.321 50.4744 139.131 50.4744 138.215 50.4744 137.353 50.365 136.559 50.1392 135.766 49.9135 135.068 49.5715 134.473 49.0927 133.878 48.6207 133.413 48.0256 133.078 47.3074 132.742 46.5891 132.571 45.7273 132.571 44.7354 132.571 43.641 132.763 42.7449 133.146 42.0335 133.529 41.329 134.028 40.7612 134.637 40.3371 135.246 39.913 135.944 39.5984 136.723 39.3863 137.503 39.1743 138.297 39.0101 139.09 38.8801 139.884 38.757 140.663 38.6544 141.436 38.5792 142.203 38.5039 142.887 38.3945 143.489 38.244 144.084 38.0935 144.556 37.8746 144.904 37.5942 145.253 37.3069 145.411 36.8896 145.39 36.3492 145.39 35.7815 145.294 35.3232 145.11 34.988 144.925 34.6528 144.672 34.3929 144.364 34.2082 144.056 34.0235 143.694 33.9004 143.283 33.8389 142.873 33.7773 142.435 33.7431 141.963 33.7431 140.923 33.7431 140.103 33.9688 139.507 34.4134 138.912 34.8581 138.564 35.6036 138.461 36.6502L133.167 36.6502Z" transform="matrix(1 0 0 1.00169 45 629)"/><path d="M159.201 30.7334 159.201 34.3108 159.276 34.3108C159.522 33.7157 159.857 33.1617 160.281 32.6555 160.705 32.1493 161.191 31.7115 161.732 31.349 162.279 30.9865 162.86 30.7128 163.483 30.5076 164.105 30.3093 164.748 30.2067 165.418 30.2067 165.767 30.2067 166.15 30.2682 166.574 30.3914L166.574 35.3095C166.328 35.2616 166.027 35.2137 165.678 35.1796 165.33 35.1453 164.994 35.1248 164.673 35.1248 163.702 35.1248 162.888 35.289 162.21 35.6105 161.54 35.932 161 36.3766 160.589 36.9307 160.179 37.4916 159.885 38.1414 159.714 38.887 159.543 39.6326 159.454 40.4397 159.454 41.3084L159.454 49.9888 154.166 49.9888 154.166 30.7265 159.194 30.7265Z" transform="matrix(1 0 0 1.00169 45 629)"/><path d="M172.225 39.5094C169.55 39.5094 167.382 41.6847 167.382 44.3524 167.382 47.0201 169.557 49.1953 172.225 49.1953 174.892 49.1953 177.067 47.0201 177.067 44.3524 177.067 41.6847 174.892 39.5094 172.225 39.5094M172.225 50.2555C168.969 50.2555 166.321 47.6083 166.321 44.3524 166.321 41.0964 168.969 38.4492 172.225 38.4492 175.48 38.4492 178.128 41.0964 178.128 44.3524 178.128 47.6083 175.48 50.2555 172.225 50.2555" transform="matrix(1 0 0 1.00169 45 629)"/><path d="M171.198 44.024 172.594 44.024C172.868 44.024 173.073 43.9625 173.21 43.8325 173.353 43.7025 173.422 43.511 173.422 43.2511 173.422 43.0938 173.401 42.9706 173.353 42.8749 173.305 42.7791 173.244 42.7039 173.168 42.6491 173.086 42.5944 172.997 42.5602 172.895 42.5397 172.792 42.5192 172.69 42.5123 172.58 42.5123L171.198 42.5123 171.198 44.0309ZM170.343 41.8146 172.662 41.8146C173.196 41.8146 173.599 41.9309 173.866 42.1635 174.133 42.396 174.27 42.7175 174.27 43.128 174.27 43.3605 174.236 43.552 174.167 43.7025 174.099 43.853 174.017 43.9761 173.928 44.0719 173.839 44.1677 173.75 44.2292 173.661 44.2703 173.572 44.3113 173.51 44.3387 173.469 44.3524L173.469 44.366C173.545 44.3729 173.62 44.4002 173.702 44.4344 173.784 44.4686 173.866 44.5302 173.935 44.6055 174.01 44.6875 174.065 44.7901 174.112 44.9133 174.16 45.0364 174.181 45.2006 174.181 45.3921 174.181 45.6794 174.201 45.9393 174.242 46.1719 174.283 46.4044 174.352 46.5686 174.441 46.6712L173.531 46.6712C173.469 46.5686 173.428 46.4523 173.422 46.3224 173.408 46.1924 173.408 46.0761 173.408 45.953 173.408 45.7341 173.394 45.5426 173.367 45.3784 173.339 45.2142 173.292 45.0843 173.216 44.9748 173.141 44.8654 173.045 44.7901 172.922 44.7423 172.799 44.6944 172.635 44.667 172.443 44.667L171.192 44.667 171.192 46.6644 170.343 46.6644 170.343 41.8078Z" transform="matrix(1 0 0 1.00169 45 629)"/></g></svg>